<svg width="355" height="241" viewBox="0 0 355 241" fill="none" xmlns="http://www.w3.org/2000/svg">
<path d="M243.834 120.969L334.817 39.9187V201.095L243.834 120.969ZM126.595 134.695L158.545 163.133C163.559 167.501 170.097 170.14 177.242 170.14H177.493H177.685C184.844 170.14 191.382 167.486 196.456 163.087L196.412 163.118L228.362 134.68L325.484 220.205H29.5172L126.595 134.695ZM29.3841 20.7025H325.661L183.351 147.435C181.757 148.746 179.772 149.453 177.73 149.437H177.523H177.33C175.281 149.452 173.29 148.739 171.695 147.42L171.709 147.435L29.3841 20.7025ZM20.1984 39.9035L111.167 120.954L20.1984 201.034V39.9035ZM339.698 2.88167C336.148 1.06167 331.977 0 327.554 0H27.5055C23.2202 0.0173934 18.9955 1.03939 15.1545 2.98783L15.3172 2.912C10.7298 5.23981 6.86665 8.83361 4.16212 13.2893C1.45758 17.745 0.0188968 22.886 0.0078125 28.1342L0.0078125 212.743C0.0156433 220.214 2.91367 227.377 8.06602 232.66C13.2184 237.943 20.2042 240.914 27.4907 240.923H327.51C334.797 240.914 341.782 237.943 346.935 232.66C352.087 227.377 354.985 220.214 354.993 212.743V28.1342C354.993 17.108 348.795 7.553 339.772 2.9575L339.61 2.88167H339.698Z" fill="#6B7582"/>
</svg>
